<svg width="375" height="85" viewBox="0 0 375 85" fill="none" xmlns="http://www.w3.org/2000/svg">
<circle opacity="0.386703" cx="372.5" cy="2" r="45" fill="url(#paint0_linear_0_1)"/>
<circle cx="64" cy="73.5" r="11.5" fill="url(#paint1_linear_0_1)"/>
<circle cx="5" cy="38.5" r="11.5" fill="url(#paint2_linear_0_1)"/>
<g opacity="0.666096">
<mask id="mask0_0_1" style="mask-type:alpha" maskUnits="userSpaceOnUse" x="194" y="20" width="86" height="52">
<rect x="194" y="20" width="86" height="52" fill="white"/>
</mask>
<g mask="url(#mask0_0_1)">
<path d="M253.939 21.3569C253.349 21.6102 252.879 22.0809 252.627 22.6714L222.54 93.0595H287.455L257.223 22.6674C256.678 21.3987 255.208 20.812 253.939 21.3569Z" fill="#606186"/>
<mask id="mask1_0_1" style="mask-type:alpha" maskUnits="userSpaceOnUse" x="222" y="21" width="66" height="73">
<path d="M253.939 21.3569C253.349 21.6102 252.879 22.0809 252.627 22.6714L222.54 93.0595H287.455L257.223 22.6674C256.678 21.3987 255.208 20.812 253.939 21.3569Z" fill="white"/>
</mask>
<g mask="url(#mask1_0_1)">
<rect x="254.54" y="19.1533" width="34" height="76" fill="#67688E"/>
</g>
<path d="M208.939 39.3569C208.349 39.6102 207.879 40.0809 207.627 40.6714L177.54 111.06H242.455L212.223 40.6674C211.678 39.3987 210.208 38.812 208.939 39.3569Z" fill="#595A7F"/>
<mask id="mask2_0_1" style="mask-type:alpha" maskUnits="userSpaceOnUse" x="177" y="39" width="66" height="73">
<path d="M208.939 39.3569C208.349 39.6102 207.879 40.0809 207.627 40.6714L177.54 111.06H242.455L212.223 40.6674C211.678 39.3987 210.208 38.812 208.939 39.3569Z" fill="white"/>
</mask>
<g mask="url(#mask2_0_1)">
<rect x="209.54" y="37.1533" width="34" height="76" fill="#606186"/>
</g>
</g>
</g>
<path opacity="0.152198" fill-rule="evenodd" clip-rule="evenodd" d="M141.568 40.2662L136.659 45.1738L131.751 40.2662L126.842 45.1747L121.933 40.2662L117.023 45.1747L112.115 40.2662L107.206 45.1747L102.297 40.2662L97.0662 45.4972L97.0135 45.5603C96.8905 45.7379 96.9081 45.9834 97.0662 46.1415L97.1293 46.1942C97.3069 46.3172 97.5524 46.2997 97.7106 46.1415L102.297 41.5545L107.206 46.4637L112.115 41.5545L117.024 46.4637L121.933 41.5545L126.842 46.4637L131.75 41.5545L136.659 46.4637L141.569 41.5545L146.155 46.1415L146.218 46.1942C146.396 46.3172 146.641 46.2997 146.799 46.1415C146.977 45.9636 146.977 45.6751 146.799 45.4972L141.568 40.2662ZM141.568 45.7334L136.659 50.641L131.751 45.7334L126.842 50.6419L121.933 45.7334L117.023 50.6419L112.115 45.7334L107.206 50.6419L102.297 45.7334L97.0662 50.9644L97.0135 51.0275C96.8905 51.2051 96.9081 51.4506 97.0662 51.6088L97.1293 51.6615C97.3069 51.7845 97.5524 51.7669 97.7106 51.6088L102.296 47.0217L107.206 51.9309L112.115 47.0217L117.024 51.9309L121.933 47.0217L126.842 51.9309L131.75 47.0217L136.659 51.9309L141.569 47.0217L146.155 51.6088L146.218 51.6615C146.396 51.7845 146.641 51.7669 146.799 51.6088C146.977 51.4308 146.977 51.1424 146.799 50.9644L141.568 45.7334ZM136.659 56.1083L141.568 51.2007L146.799 56.4317C146.977 56.6096 146.977 56.8981 146.799 57.076C146.641 57.2342 146.396 57.2517 146.218 57.1287L146.155 57.076L141.569 52.489L136.659 57.3982L131.75 52.489L126.842 57.3982L121.933 52.489L117.024 57.3982L112.115 52.489L107.206 57.3982L102.297 52.489L97.7106 57.076C97.5524 57.2342 97.3069 57.2517 97.1293 57.1287L97.0662 57.076C96.9081 56.9179 96.8905 56.6724 97.0135 56.4948L97.0662 56.4317L102.297 51.2007L107.206 56.1092L112.115 51.2007L117.023 56.1092L121.933 51.2007L126.842 56.1092L131.751 51.2007L136.659 56.1083ZM141.568 56.6679L136.659 61.5755L131.751 56.6679L126.842 61.5764L121.933 56.6679L117.023 61.5764L112.115 56.6679L107.206 61.5764L102.297 56.6679L97.0662 61.8989L97.0135 61.962C96.8905 62.1396 96.9081 62.3851 97.0662 62.5433L97.1293 62.596C97.3069 62.719 97.5524 62.7014 97.7106 62.5433L102.297 57.9562L107.206 62.8654L112.115 57.9562L117.024 62.8654L121.933 57.9562L126.842 62.8654L131.75 57.9562L136.659 62.8654L141.569 57.9562L146.155 62.5433L146.218 62.596C146.396 62.719 146.641 62.7014 146.799 62.5433C146.977 62.3653 146.977 62.0769 146.799 61.8989L141.568 56.6679Z" fill="#AAACCB"/>
<defs>
<linearGradient id="paint0_linear_0_1" x1="345.001" y1="-8.86318" x2="323.275" y2="28.1574" gradientUnits="userSpaceOnUse">
<stop stop-color="#505175" stop-opacity="0.01"/>
<stop offset="1" stop-color="#686B8A"/>
</linearGradient>
<linearGradient id="paint1_linear_0_1" x1="77.9945" y1="48.7913" x2="40.9821" y2="58.8892" gradientUnits="userSpaceOnUse">
<stop stop-color="#505175" stop-opacity="0.01"/>
<stop offset="1" stop-color="#686B8A"/>
</linearGradient>
<linearGradient id="paint2_linear_0_1" x1="36.7659" y1="12.6587" x2="-14.9167" y2="16.5541" gradientUnits="userSpaceOnUse">
<stop stop-color="#505175" stop-opacity="0.01"/>
<stop offset="1" stop-color="#686B8A"/>
</linearGradient>
</defs>
</svg>
