<svg width="98" height="98" viewBox="0 0 98 98" fill="none" xmlns="http://www.w3.org/2000/svg">
<path opacity="0.482527" fill-rule="evenodd" clip-rule="evenodd" d="M6.07304 13.2682C5.16229 13.2205 4.39665 13.3846 3.77612 13.7607C3.11838 14.1588 2.77604 14.7297 2.73647 15.4846C2.69753 16.2276 2.99094 16.8198 3.62931 17.2498C3.88541 17.4074 4.52059 17.669 5.55756 18.0598C6.48919 18.397 7.04237 18.6183 7.22908 18.7242C7.7539 19.0281 8.01005 19.414 7.98493 19.8934C7.96483 20.2768 7.75739 20.5664 7.36261 20.762C6.96784 20.9576 6.44626 21.0504 5.79915 21.0165C5.08014 20.9788 4.55977 20.8194 4.22606 20.5375C3.85766 20.2298 3.64374 19.7259 3.58304 19.0498L2.28882 18.982C2.3042 20.0643 2.64622 20.8753 3.32687 21.4157C3.89271 21.8539 4.69629 22.1123 5.73886 22.1669C6.81738 22.2234 7.66753 22.0517 8.28932 21.6517C8.91174 21.2397 9.24273 20.6562 9.28292 19.8893C9.32437 19.0984 8.98491 18.4677 8.27715 17.986C7.95229 17.7647 7.21177 17.4495 6.08019 17.0297C5.28985 16.748 4.80794 16.5425 4.62186 16.4246C4.20238 16.1743 4.01436 15.864 4.03446 15.4806C4.05707 15.0491 4.25315 14.747 4.63469 14.5747C4.94307 14.4227 5.37888 14.3614 5.9421 14.3909C6.58922 14.4248 7.06228 14.5698 7.38463 14.839C7.70761 15.0963 7.90196 15.515 7.99291 16.0725L9.28713 16.1404C9.25223 15.2012 8.95249 14.5006 8.37655 14.0258C7.83593 13.5649 7.06768 13.3203 6.07304 13.2682ZM14.7227 13.8329L13.0878 22.2435L14.3718 22.4931L15.1045 18.7237L19.51 19.58L18.7773 23.3495L20.0613 23.599L21.6962 15.1885L20.4122 14.9389L19.723 18.4845L15.3174 17.6282L16.0066 14.0825L14.7227 13.8329ZM28.2278 21.3306L26.7681 16.5032L28.286 16.9964L29.3151 20.5861L32.2576 18.2869L33.7755 18.7801L29.7343 21.8201L31.3219 26.9918L29.804 26.4986L28.6736 22.5605L25.4443 25.0821L23.9265 24.5889L28.2278 21.3306ZM37.7352 20.5595L34.1142 28.3248L35.2888 28.8725L38.9098 21.1072L37.7352 20.5595ZM45.1068 24.4998L38.6072 30.9848L39.8788 31.551L41.5114 29.8609L44.8769 31.3593L44.7133 33.7034L45.9959 34.2745L46.4661 25.105L45.1068 24.4998ZM42.3124 29.0353L45.1935 26.0752L45.2373 26.0947L44.9544 30.2116L42.3124 29.0353ZM53.2254 29.1681L47.9504 35.9198L48.9811 36.7251L52.9484 31.6471L52.9863 31.6767L52.5083 39.4808L53.5106 40.2639L58.7856 33.5122L57.7549 32.7069L53.8319 37.7281L53.794 37.6986L54.2656 29.9808L53.2254 29.1681ZM61.5889 38.4776C62.7429 38.3758 63.7611 38.7831 64.6521 39.674C65.4243 40.4462 65.8655 41.2268 65.9588 42.0329C66.0522 42.8051 65.8231 43.5772 65.2546 44.3664L64.3212 43.433C64.6436 42.9409 64.7624 42.4487 64.6776 41.9566C64.6012 41.4559 64.3127 40.9638 63.8375 40.4886C63.252 39.9031 62.5902 39.6316 61.835 39.691C61.0374 39.7419 60.2737 40.1492 59.527 40.8959C58.7973 41.6256 58.3984 42.3469 58.3475 43.0766C58.2796 43.8573 58.6275 44.6294 59.3827 45.3846C59.6797 45.6816 60.0022 45.9192 60.3331 46.1143C60.6555 46.301 60.978 46.4198 61.3089 46.4962L62.6241 45.181L60.9525 43.5094L61.7416 42.7202L64.3381 45.3167L61.7926 47.8623C61.2325 47.7944 60.681 47.6162 60.1294 47.3362C59.5524 47.0308 59.0009 46.615 58.4748 46.0889C57.5075 45.1216 57.0663 44.0694 57.1426 42.9239C57.2105 41.8547 57.7027 40.8704 58.6021 39.971C59.51 39.0631 60.5028 38.5624 61.5889 38.4776ZM72.645 50.5342L71.6786 51.0922L73.1126 53.576L66.6589 57.302L67.3069 58.4244L73.7606 54.6984L75.1886 57.1717L76.155 56.6137L72.645 50.5342ZM69.8129 63.5534L77.6402 60.0685L80.1441 65.6922L79.1245 66.1462L77.1527 61.7173L74.8725 62.7325L76.7272 66.8983L75.7077 67.3522L73.853 63.1864L71.3645 64.2944L73.4193 68.9096L72.3998 69.3635L69.8129 63.5534ZM82.8189 73.2687C82.6285 71.914 82.0452 70.9539 81.0419 70.3678C80.1555 69.838 79.0901 69.6726 77.8305 69.8497C76.5471 70.03 75.5669 70.4708 74.8932 71.1956C74.1124 72.0203 73.8078 73.1294 74.0032 74.5198C74.1318 75.4348 74.5035 76.1823 75.1182 76.7624C75.7752 77.385 76.6094 77.7162 77.6224 77.7677L77.4454 76.5081C76.7566 76.4352 76.2157 76.2083 75.8229 75.8273C75.4571 75.4667 75.2292 74.9655 75.1423 74.3476C75.0087 73.3969 75.2073 72.6541 75.738 72.119C76.2363 71.6127 76.9906 71.2886 78.0125 71.1449C78.9988 71.0063 79.8132 71.11 80.4454 71.4695C81.1403 71.8445 81.5462 72.4903 81.6748 73.4053C81.7616 74.0232 81.701 74.5407 81.4845 74.9831C81.268 75.4255 80.8786 75.759 80.3282 75.9817L80.5052 77.2414C81.3425 76.9904 81.9783 76.5133 82.3905 75.8252C82.8232 75.11 82.9575 74.255 82.8189 73.2687ZM74.6553 80.7948L83.14 79.6023L83.322 80.8976L79.7451 81.4003L80.3698 85.8446L83.9466 85.3419L84.1286 86.6372L75.644 87.8296L75.462 86.5344L79.2646 85.9999L78.64 81.5556L74.8374 82.09L74.6553 80.7948Z" fill="white"/>
</svg>
